<?xml version="1.0" standalone="no"?>
<!DOCTYPE svg PUBLIC "-//W3C//DTD SVG 20010904//EN"
 "http://www.w3.org/TR/2001/REC-SVG-20010904/DTD/svg10.dtd">
<svg version="1.0" xmlns="http://www.w3.org/2000/svg"
 width="512.000000pt" height="512.000000pt" viewBox="0 0 512.000000 512.000000"
 preserveAspectRatio="xMidYMid meet">
<metadata>
Created by potrace 1.11, written by Peter Selinger 2001-2013
</metadata>
<g transform="translate(0.000000,512.000000) scale(0.100000,-0.100000)"
fill="#000000" stroke="none">
<path d="M2437 5104 c-1 -1 -44 -5 -96 -8 -51 -3 -103 -8 -115 -11 -11 -2 -38
-7 -59 -10 -21 -3 -73 -12 -115 -21 -42 -9 -85 -17 -94 -19 -76 -15 -321 -96
-398 -131 -135 -63 -314 -156 -318 -166 -2 -5 -8 -8 -12 -8 -21 0 -236 -157
-339 -248 -368 -323 -629 -725 -769 -1187 -48 -158 -82 -336 -99 -520 -13
-131 -6 -447 11 -545 3 -14 7 -42 10 -63 26 -175 82 -377 155 -562 31 -79 134
-288 153 -312 6 -7 7 -13 2 -13 -5 0 -4 -4 2 -8 6 -4 41 -54 78 -111 373 -576
1000 -991 1676 -1110 176 -31 288 -39 495 -36 193 3 326 18 495 55 820 178
1503 754 1819 1534 27 66 54 137 59 156 43 146 56 199 77 300 36 175 47 290
48 490 0 136 -7 276 -18 345 -27 164 -36 209 -61 305 -63 235 -155 461 -256
628 -21 34 -38 64 -38 67 0 4 -52 81 -98 144 -270 378 -651 684 -1077 866
-216 92 -512 167 -760 191 -65 6 -352 13 -358 8z"/>
</g>
</svg>
